<?xml version="1.0" standalone="no"?>
<!DOCTYPE svg PUBLIC "-//W3C//DTD SVG 20010904//EN"
 "http://www.w3.org/TR/2001/REC-SVG-20010904/DTD/svg10.dtd">
<svg version="1.0" xmlns="http://www.w3.org/2000/svg"
 width="431.000000pt" height="431.000000pt" viewBox="0 0 431.000000 431.000000"
 preserveAspectRatio="xMidYMid meet">
<metadata>
Created by potrace 1.11, written by Peter Selinger 2001-2013
</metadata>
<g transform="translate(0.000000,431.000000) scale(0.100000,-0.100000)"
fill="#000000" stroke="none">
<path d="M1498 3690 c-39 -39 -48 -56 -48 -84 l0 -34 -49 13 -49 13 -51 -52
c-41 -41 -51 -58 -51 -85 0 -36 -2 -36 -75 -16 -15 4 -34 -8 -73 -46 l-52 -52
2 -200 3 -200 294 -78 295 -78 52 47 c45 40 52 52 53 86 1 35 3 38 24 32 12
-4 49 -14 82 -22 33 -8 71 -18 85 -23 14 -5 44 -14 68 -20 l42 -12 0 -99 0
-99 43 -11 c23 -6 68 -18 100 -27 l57 -16 0 -134 0 -135 -22 6 c-71 20 -73 20
-124 -30 -35 -35 -50 -58 -54 -85 l-5 -36 -47 12 -47 12 -50 -51 c-41 -41 -51
-58 -51 -85 0 -33 -1 -33 -36 -27 -19 4 -41 9 -48 12 -6 2 -35 -19 -64 -48
l-52 -52 2 -200 3 -199 110 -29 c61 -16 133 -36 160 -44 28 -7 112 -30 187
-50 l137 -36 50 53 c41 43 51 60 51 87 0 26 4 33 14 29 8 -3 31 -9 51 -13 33
-6 39 -3 85 42 42 41 50 55 50 85 l0 36 48 -13 47 -12 53 51 c42 42 52 57 52
85 0 31 2 34 25 28 14 -3 35 -9 48 -12 19 -4 34 5 75 46 l52 52 0 498 0 498
-32 10 c-18 6 -63 18 -100 28 l-68 17 0 101 0 101 -97 25 -98 25 -3 101 -3
101 -492 132 c-271 72 -496 131 -502 131 -5 -1 -31 -23 -57 -50z"/>
<path d="M1702 1437 l-52 -53 2 -299 3 -298 145 -39 c80 -21 204 -54 275 -73
72 -19 139 -37 151 -41 16 -4 33 7 72 47 l52 53 0 298 0 297 -52 15 c-29 8
-156 43 -283 76 -126 34 -237 63 -245 66 -9 2 -37 -18 -68 -49z"/>
</g>
</svg>
